<svg width="27" height="33" viewBox="0 0 27 33" fill="none" xmlns="http://www.w3.org/2000/svg">
<path d="M20.3665 1.39031C20.3665 1.17283 20.4529 0.964265 20.6067 0.810485C20.7605 0.656705 20.969 0.570312 21.1865 0.570312C21.404 0.570312 21.6126 0.656705 21.7664 0.810485C21.9201 0.964265 22.0065 1.17283 22.0065 1.39031V5.49031H26.1065C26.324 5.49031 26.5326 5.57671 26.6864 5.73048C26.8401 5.88426 26.9265 6.09283 26.9265 6.31031C26.9265 6.52779 26.8401 6.73636 26.6864 6.89014C26.5326 7.04392 26.324 7.13031 26.1065 7.13031H22.0065V11.2303C22.0065 11.4478 21.9201 11.6564 21.7664 11.8101C21.6126 11.9639 21.404 12.0503 21.1865 12.0503C20.969 12.0503 20.7605 11.9639 20.6067 11.8101C20.4529 11.6564 20.3665 11.4478 20.3665 11.2303V7.13031H16.2665C16.049 7.13031 15.8405 7.04392 15.6867 6.89014C15.5329 6.73636 15.4465 6.52779 15.4465 6.31031C15.4465 6.09283 15.5329 5.88426 15.6867 5.73048C15.8405 5.57671 16.049 5.49031 16.2665 5.49031H20.3665V1.39031ZM2.32652 8.77031C2.32652 8.33536 2.49931 7.91822 2.80687 7.61066C3.11443 7.3031 3.53157 7.13031 3.96652 7.13031H9.70652C9.924 7.13031 10.1326 7.04392 10.2864 6.89014C10.4401 6.73636 10.5265 6.52779 10.5265 6.31031C10.5265 6.09283 10.4401 5.88426 10.2864 5.73048C10.1326 5.57671 9.924 5.49031 9.70652 5.49031H3.96652C3.09661 5.49031 2.26233 5.83588 1.64721 6.451C1.03209 7.06612 0.686523 7.9004 0.686523 8.77031V31.7303C0.686523 31.8826 0.728929 32.0319 0.80899 32.1614C0.88905 32.291 1.0036 32.3956 1.13981 32.4637C1.27602 32.5318 1.4285 32.5607 1.58016 32.547C1.73183 32.5333 1.8767 32.4777 1.99852 32.3863L11.3465 25.1703L20.6945 32.3863C20.8164 32.4777 20.9612 32.5333 21.1129 32.547C21.2646 32.5607 21.417 32.5318 21.5532 32.4637C21.6894 32.3956 21.804 32.291 21.8841 32.1614C21.9641 32.0319 22.0065 31.8826 22.0065 31.7303V17.7903C22.0065 17.5728 21.9201 17.3643 21.7664 17.2105C21.6126 17.0567 21.404 16.9703 21.1865 16.9703C20.969 16.9703 20.7605 17.0567 20.6067 17.2105C20.4529 17.3643 20.3665 17.5728 20.3665 17.7903V30.0575L11.8385 23.4975C11.6966 23.3911 11.5239 23.3335 11.3465 23.3335C11.1691 23.3335 10.9965 23.3911 10.8545 23.4975L2.32652 30.0575V8.77031Z" fill="#292929"/>
</svg>
